<svg width="14" height="24" viewBox="0 0 14 24" fill="none" xmlns="http://www.w3.org/2000/svg">
<path d="M8.62029 23.9531H4.76938C4.12616 23.9531 3.60292 23.4309 3.60292 22.7889V14.12H1.35622C0.712997 14.12 0.189758 13.5976 0.189758 12.9558V9.24115C0.189758 8.59918 0.712997 8.07697 1.35622 8.07697H3.60292V6.2168C3.60292 4.37238 4.18322 2.80316 5.28088 1.67908C6.3835 0.549866 7.92441 -0.046875 9.73703 -0.046875L12.6739 -0.0421143C13.316 -0.0410156 13.8384 0.481201 13.8384 1.12207V4.57105C13.8384 5.21301 13.3153 5.73523 12.6723 5.73523L10.6949 5.73596C10.0919 5.73596 9.93829 5.85663 9.90545 5.89362C9.85133 5.95496 9.78693 6.12836 9.78693 6.60718V8.07678H12.5237C12.7297 8.07678 12.9293 8.1275 13.1008 8.22308C13.4709 8.42944 13.701 8.81964 13.701 9.24133L13.6995 12.956C13.6995 13.5976 13.1762 14.1198 12.533 14.1198H9.78693V22.7889C9.78693 23.4309 9.26351 23.9531 8.62029 23.9531ZM5.01265 22.5461H8.37701V13.4901C8.37701 13.0615 8.72651 12.7128 9.15582 12.7128H12.2897L12.291 9.48395H9.15563C8.72633 9.48395 8.37701 9.13532 8.37701 8.70667V6.60718C8.37701 6.0575 8.43297 5.43237 8.8487 4.96252C9.35102 4.39453 10.1427 4.32898 10.6945 4.32898L12.4286 4.32825V1.3645L9.73593 1.36011C6.82289 1.36011 5.01265 3.22119 5.01265 6.2168V8.70667C5.01265 9.13513 4.66334 9.48395 4.23403 9.48395H1.59949V12.7128H4.23403C4.66334 12.7128 5.01265 13.0615 5.01265 13.4901V22.5461Z" fill="#F62F61"/>
</svg>
