<svg width="44" height="44" viewBox="0 0 44 44" fill="none" xmlns="http://www.w3.org/2000/svg">
<rect x="0.5" y="0.5" width="43" height="43" rx="21.5" fill="white"/>
<rect x="0.5" y="0.5" width="43" height="43" rx="21.5" stroke="#EAEAEA"/>
<circle cx="22" cy="22" r="18" fill="#F6F6F6"/>
<path d="M15.709 23.5903L21.5028 29.033C21.648 29.1694 21.7206 29.2376 21.7995 29.2721C21.9274 29.3282 22.0728 29.3282 22.2007 29.2721C22.2796 29.2376 22.3522 29.1694 22.4974 29.033L28.2912 23.5903C29.9214 22.059 30.1193 19.539 28.7483 17.7719L28.4905 17.4396C26.8503 15.3256 23.5581 15.6802 22.4057 18.0949C22.2429 18.436 21.7573 18.436 21.5945 18.0949C20.4421 15.6802 17.1499 15.3256 15.5097 17.4396L15.2519 17.7719C13.8809 19.539 14.0788 22.059 15.709 23.5903Z" stroke="#413F3D"/>
</svg>
