<svg width="44" height="44" viewBox="0 0 44 44" fill="none" xmlns="http://www.w3.org/2000/svg">
<rect x="0.5" y="0.5" width="43" height="43" rx="21.5" fill="white"/>
<rect x="0.5" y="0.5" width="43" height="43" rx="21.5" stroke="#EAEAEA"/>
<circle cx="22" cy="22" r="18" fill="#F6F6F6"/>
<path d="M18.6667 22L18.6667 18.6667C18.6667 16.8257 20.1591 15.3333 22 15.3333V15.3333C23.841 15.3333 25.3334 16.8257 25.3334 18.6667L25.3334 22" stroke="#413F3D" stroke-linecap="round"/>
<path d="M15.0277 23.1678C15.1728 21.4269 15.2453 20.5565 15.8194 20.0282C16.3935 19.5 17.2669 19.5 19.0139 19.5H24.9861C26.7331 19.5 27.6065 19.5 28.1806 20.0282C28.7547 20.5565 28.8272 21.4269 28.9723 23.1678L29.3195 27.3339C29.404 28.3474 29.4462 28.8542 29.1491 29.1771C28.852 29.5 28.3435 29.5 27.3264 29.5H16.6736C15.6565 29.5 15.148 29.5 14.8509 29.1771C14.5538 28.8542 14.596 28.3474 14.6805 27.3339L15.0277 23.1678Z" stroke="#413F3D"/>
</svg>
